<svg viewBox="0 0 135 99" fill="none" xmlns="http://www.w3.org/2000/svg"><path d="M15.744 98.104c-3.243 0-5.888-.619-7.936-1.856-2.048-1.195-3.648-2.752-4.8-4.672A21.295 21.295 0 0 1 .64 85.56C.213 83.47 0 81.55 0 79.8c0-4.864.981-9.664 2.944-14.4a50.95 50.95 0 0 1 7.872-13.056c-2.901 0-5.077-.619-6.528-1.856-1.45-1.237-2.176-2.645-2.176-4.224 0-.64.192-1.45.576-2.432.427-.981.896-1.963 1.408-2.944A291.37 291.37 0 0 1 5.568 38.2c1.067-2.645 2.176-4.48 3.328-5.504 1.152-1.024 2.496-1.536 4.032-1.536 1.365 0 2.39.341 3.072 1.024.683.683 1.067 1.45 1.152 2.304.085.853-.15 1.536-.704 2.048-1.024-.427-2.133-.64-3.328-.64-1.664 0-3.093.448-4.288 1.344-1.195.896-1.792 2.09-1.792 3.584 0 1.237.64 2.24 1.92 3.008 1.28.725 2.71 1.088 4.288 1.088 1.877 0 3.712-.363 5.504-1.088 1.792-.725 3.733-1.728 5.824-3.008l.832.768-2.624 4.352a51.49 51.49 0 0 0-7.168 5.888A46.269 46.269 0 0 0 9.6 59.064a36.158 36.158 0 0 0-4.16 8.064 25.34 25.34 0 0 0-1.472 8.512c0 1.408.213 2.837.64 4.288a11.514 11.514 0 0 0 2.304 4.096c1.067 1.28 2.517 2.304 4.352 3.072 1.835.768 4.117 1.152 6.848 1.152 2.816 0 5.675-.533 8.576-1.6 2.901-1.067 5.653-2.859 8.256-5.376 1.707-1.707 3.307-3.733 4.8-6.08 1.493-2.347 2.837-5.141 4.032-8.384l1.792.64a67.07 67.07 0 0 1-3.648 9.856c-1.493 3.285-3.264 6.272-5.312 8.96-2.603 3.499-5.653 6.336-9.152 8.512-3.499 2.219-7.403 3.328-11.712 3.328ZM52.45 75.96l-.513-1.664 6.145-3.584c2.858-1.664 5.077-3.136 6.655-4.416a7.128 7.128 0 0 0 1.345-1.472c.34-.512.512-.939.512-1.28 0-.47-.128-.853-.384-1.152-.214-.299-.406-.448-.576-.448-.171.17-.598.49-1.28.96-.683.427-1.664.64-2.944.64-1.067 0-2.112-.341-3.136-1.024-.894-.621-1.38-1.773-1.46-3.454a2.63 2.63 0 0 1 .158-.999l3.006-8.515c.183-.518.492-.997.972-1.264.27-.15.55-.27.843-.36.555-.17 1.046-.256 1.473-.256 1.749 0 3.157.917 4.224 2.752 1.066 1.792 1.6 4.203 1.6 7.232 0 1.92-.278 3.84-.833 5.76-.511 1.877-1.173 3.605-1.984 5.184-.767 1.579-1.535 2.88-2.303 3.904-.64.853-1.216 1.408-1.728 1.664-.47.213-1.195.405-2.176.576l-7.617 1.216ZM58.404 88.184l-.192-1.088a28.534 28.534 0 0 0 5.632-3.84c1.707-1.45 3.137-2.816 4.288-4.096 1.152-1.28 1.92-2.155 2.304-2.624 1.195-1.493 2.39-3.221 3.584-5.184a439.41 439.41 0 0 0 3.52-6.016 109.989 109.989 0 0 1 3.456-5.568c1.153-1.707 2.24-3.03 3.264-3.968.64-.213 1.323 0 2.048.64.768.64 1.344 1.259 1.728 1.856-1.365.896-2.538 1.856-3.52 2.88a26.774 26.774 0 0 0-2.816 3.52 83.457 83.457 0 0 0-2.88 4.608 201.386 201.386 0 0 1-3.583 5.952c-.555.896-1.323 1.984-2.304 3.264-.982 1.323-2.198 2.645-3.649 3.968a23.86 23.86 0 0 1-4.8 3.584c-1.834 1.024-3.86 1.728-6.08 2.112ZM98.164 24.212h-.448c-.17-.043-.363-.085-.576-.128-1.365-.341-2.368-.917-3.008-1.728-.64-.853-.96-1.685-.96-2.496 0-.725.17-1.365.512-1.92.341-.555.661-1.003.96-1.344l2.112-2.752h.32a5.18 5.18 0 0 0 2.048 2.432c.939.555 1.877.917 2.816 1.088.683.128 1.024.427 1.024.896 0 .256-.149.597-.448 1.024l-3.136 4.224c-.299.47-.704.704-1.216.704ZM94.58 36.628c-.299 0-.683-.064-1.152-.192-1.323-.427-2.368-1.067-3.136-1.92-.768-.896-1.152-1.792-1.152-2.688 0-.725.192-1.387.576-1.984.384-.597.725-1.088 1.024-1.472l2.304-3.008h.384c.341 1.152 1.024 2.07 2.048 2.752 1.067.683 2.133 1.13 3.2 1.344l4.288-5.76h.384c.341 1.11.981 1.963 1.92 2.56a8.761 8.761 0 0 0 3.008 1.216c.725.17 1.088.533 1.088 1.088 0 .341-.149.725-.448 1.152l-3.136 4.48c-.384.512-.832.768-1.344.768-.299 0-.683-.064-1.152-.192-1.024-.384-1.92-.853-2.688-1.408-.768-.597-1.344-1.173-1.728-1.728l-2.944 4.224c-.384.512-.832.768-1.344.768Z" fill="#000"/><path d="M75.675 70.656c1.067-3.03 2.261-5.675 3.584-7.936 1.323-2.219 2.688-4.139 4.096-5.76 1.237-1.493 2.539-2.71 3.904-3.648 1.365-.981 2.859-1.472 4.48-1.472.555 0 1.11.085 1.664.256.597.128 1.11.192 1.536.192 1.152 0 2.112-.299 2.88-.896.768-.64 1.365-1.344 1.792-2.112.427-.81.725-1.472.896-1.984h1.216c.299.597.619 1.045.96 1.344.341.299.811.448 1.408.448.768 0 1.557-.384 2.368-1.152.811-.768 1.493-1.92 2.048-3.456l1.088-.192c-.171 1.877-.533 3.627-1.088 5.248-.555 1.579-1.28 2.859-2.176 3.84-.853.981-1.92 1.472-3.2 1.472a4.935 4.935 0 0 1-2.432-.64c-.81 1.493-1.92 2.773-3.328 3.84-1.365 1.11-2.752 1.664-4.16 1.664-1.067 0-2.048-.085-2.944-.256a6.852 6.852 0 0 0-2.624.128c-.896.256-1.963.981-3.2 2.176-.64.597-1.301 1.344-1.984 2.24a58.59 58.59 0 0 1-2.048 2.816 15.747 15.747 0 0 1-2.304 2.432c-.768.725-1.579 1.195-2.432 1.408Z" fill="#000"/><path d="M110.368 50.848c-1.11 0-2.07-.405-2.88-1.216.213-1.11.511-2.133.895-3.072.385-.896.785-1.461 1.212-2.272.597.81 1.412.928 2.437.928 1.706 0 3.327-.704 4.864-2.112 1.578-1.408 3.008-3.05 4.288-4.928l6.72-9.856h.895c0 .427.107.917.321 1.472.213.555.853 1.152 1.92 1.792.853.47 1.578 1.152 2.175 2.048.64.896.961 1.813.961 2.752 0 .81-.192 1.664-.576 2.56-.342.896-.875 1.77-1.601 2.624l-1.92 2.24c-2.005-1.45-3.775-2.176-5.311-2.176-.939 0-1.857.277-2.752.832-.854.512-1.728 1.28-2.624 2.304-1.707 1.963-3.328 3.456-4.864 4.48-1.536 1.067-2.923 1.6-4.16 1.6ZM38.976 34h-3.504L49.104 5.2H29.376L31.584.88h21.744L38.976 34ZM59.238 12.592c7.92-.768 14.64 2.688 14.64 9.168 0 7.104-7.008 12.72-14.64 12.72-3.168 0-5.232-1.536-5.232-3.648 0-1.152.816-2.448 2.064-3.024l5.472 4.704c3.84-.576 8.352-3.12 8.352-8.544s-4.128-8.496-13.008-7.632L59.286.88h14.64L71.718 5.2H60.294l-1.056 7.392Z" fill="#000"/></svg>